<svg xmlns:x="http://ns.adobe.com/Extensibility/1.0/" xmlns:i="http://ns.adobe.com/AdobeIllustrator/10.0/" xmlns:graph="http://ns.adobe.com/Graphs/1.0/" xmlns="http://www.w3.org/2000/svg" xmlns:xlink="http://www.w3.org/1999/xlink" xmlns:a="http://ns.adobe.com/AdobeSVGViewerExtensions/3.0/" version="1.1" x="0px" y="0px" viewBox="0 0 100 125" enable-background="new 0 0 100 100" xml:space="preserve"><g><path d="M89.4,27.2l-15.9-5.4c-0.6-0.2-1.3-0.1-1.8,0.3c-0.5,0.4-0.8,1-0.8,1.6v13.2H29.1V23.7c0-0.6-0.3-1.2-0.8-1.6   s-1.2-0.5-1.8-0.3l-15.9,5.4c-0.8,0.3-1.4,1-1.4,1.9v41.6c0,0.9,0.5,1.6,1.4,1.9l15.9,5.4c0.6,0.2,1.3,0.1,1.8-0.3s0.8-1,0.8-1.6   V62.8h41.8V76c0,0.6,0.3,1.2,0.8,1.6c0.3,0.2,0.8,0.4,1.2,0.4c0.2,0,0.4,0,0.6-0.1l15.9-5.4c0.8-0.3,1.4-1,1.4-1.9V29.1   C90.8,28.3,90.2,27.5,89.4,27.2z M86.8,69.2l-11.9,4V60.8c0-1.1-0.9-2-2-2H27.1c-1.1,0-2,0.9-2,2v12.4l-11.9-4V30.5l11.9-4v12.4   c0,1.1,0.9,2,2,2h45.8c1.1,0,2-0.9,2-2V26.5l11.9,4V69.2z"/><path d="M35.6,33.3h28.8c1.1,0,2-0.9,2-2V9.9c0-1.1-0.9-2-2-2H35.6c-1.1,0-2,0.9-2,2v21.4C33.6,32.4,34.5,33.3,35.6,33.3z    M37.6,11.9h24.8v17.4H37.6V11.9z"/><path d="M64.4,66.7H35.6c-1.1,0-2,0.9-2,2v21.4c0,1.1,0.9,2,2,2h28.8c1.1,0,2-0.9,2-2V68.7C66.4,67.6,65.5,66.7,64.4,66.7z    M37.6,77.3h24.8v4.3H37.6V77.3z M62.4,70.7v4.6H37.6v-4.6H62.4z M37.6,88.1v-4.6h24.8v4.6H37.6z"/></g><text x="0" y="115" fill="#000000" font-size="5px" font-weight="bold" font-family="'Helvetica Neue', Helvetica, Arial-Unicode, Arial, Sans-serif">Created by Wira</text><text x="0" y="120" fill="#000000" font-size="5px" font-weight="bold" font-family="'Helvetica Neue', Helvetica, Arial-Unicode, Arial, Sans-serif">from the Noun Project</text></svg>